# xmcd CD database file
#
# Track frame offsets:
#        150
#        15847
#        35541
#        47895
#        66146
#        84868
#        105641
#        121125
#        144834
#        158743
#
# Disc length: 2372 seconds
#
# Revision: 0
# Processed by: cddbd v1.5.2PL0 Copyright (c) Steve Scherf et al.
# Submitted via: CUERipper 2.1.5
#
DISCID=6e09420a
DTITLE=Aaron Lee Tasjan - Karma For Cheap
DYEAR=2018
DGENRE=Americana
TTITLE0=If Not Now When
TTITLE1=The Truth Is So Hard To Believe
TTITLE2=The Rest Is Yet To Come
TTITLE3=Heart Slows Down
TTITLE4=End Of The Day
TTITLE5=Dream Dreamer
TTITLE6=Strange Shadows
TTITLE7=Set You Free
TTITLE8=Crawling At Your Feet
TTITLE9=Songbird
EXTD=
EXTT0=
EXTT1=
EXTT2=
EXTT3=
EXTT4=
EXTT5=
EXTT6=
EXTT7=
EXTT8=
EXTT9=
PLAYORDER=
